<svg width="294" height="26" viewBox="0 0 294 26" fill="none" xmlns="http://www.w3.org/2000/svg">
<path d="M15.6233 11.6618C15.6233 9.91549 17.0441 8.49478 18.7904 8.49478C20.5367 8.49478 21.9574 9.91549 21.9574 11.6618C21.9574 11.9199 21.9256 12.1707 21.8671 12.4111C21.8082 12.4824 21.7589 12.5637 21.7224 12.654C21.2294 13.8757 20.0594 14.665 18.7418 14.665C18.2311 14.665 17.8171 15.0791 17.8171 15.5898V21.67H6.02148V15.476C6.02148 15.0481 5.72783 14.6761 5.3116 14.5766C3.86202 14.2303 2.84961 12.9456 2.84961 11.4525C2.84961 9.68105 4.29074 8.23988 6.06219 8.23988C6.22669 8.23988 6.39131 8.25233 6.55144 8.27687C7.01339 8.34757 7.45532 8.06273 7.58171 7.613C8.12492 5.68005 9.9085 4.33008 11.919 4.33008C12.9584 4.33008 13.9346 4.67377 14.7422 5.32407" stroke="#704A24" stroke-miterlimit="10"/>
<path d="M11.9189 2.48059C10.5053 2.48059 9.16714 2.93497 8.049 3.79458C7.17031 4.4701 6.47868 5.37414 6.05297 6.39044C3.26594 6.39544 1 8.66431 1 11.4525C1 12.5969 1.39281 13.7186 2.10605 14.6109C2.65155 15.2933 3.36859 15.8239 4.17186 16.1485V22.5947C4.17186 23.1055 4.58589 23.5195 5.0966 23.5195H18.7417C19.2525 23.5195 19.6664 23.1054 19.6664 22.5947V16.6016C22.0163 16.1859 23.8068 14.1291 23.8068 11.6618C23.8068 8.89566 21.5564 6.64525 18.7903 6.64525C16.0241 6.64525 13.7737 8.89566 13.7737 11.6618C13.7737 12.0365 13.8154 12.4103 13.8975 12.773" stroke="#704A24" stroke-miterlimit="10"/>
<path d="M34.9266 21V4.2H42.2466V5.376L38.0466 4.824C37.3106 4.728 36.8146 4.68 36.5586 4.68V12C36.7666 12 37.2626 11.976 38.0466 11.928L41.9826 11.688V12.792L38.0466 12.552C37.2626 12.504 36.7666 12.48 36.5586 12.48V20.52C36.8466 20.52 37.3506 20.472 38.0706 20.376L42.3186 19.824V21H34.9266ZM47.3485 4.2H48.9805V20.52C49.2845 20.52 49.7645 20.472 50.4205 20.376L54.4045 19.776V21H47.3485V4.2ZM64.8798 21V4.2H66.5118V11.976H76.5918V4.2H78.2238V21H76.5918V12.552H66.5118V21H64.8798ZM83.2735 12.6C83.2735 11.368 83.4895 10.224 83.9215 9.168C84.3695 8.096 84.9855 7.168 85.7695 6.384C86.5695 5.584 87.4975 4.968 88.5535 4.536C89.6255 4.088 90.7775 3.864 92.0095 3.864C93.2415 3.864 94.3855 4.088 95.4415 4.536C96.5135 4.968 97.4415 5.584 98.2255 6.384C99.0255 7.168 99.6415 8.096 100.074 9.168C100.522 10.224 100.746 11.368 100.746 12.6C100.746 13.832 100.522 14.984 100.074 16.056C99.6415 17.112 99.0255 18.04 98.2255 18.84C97.4415 19.624 96.5135 20.24 95.4415 20.688C94.3855 21.12 93.2415 21.336 92.0095 21.336C90.7775 21.336 89.6255 21.12 88.5535 20.688C87.4975 20.24 86.5695 19.624 85.7695 18.84C84.9855 18.04 84.3695 17.112 83.9215 16.056C83.4895 14.984 83.2735 13.832 83.2735 12.6ZM85.0975 12.6C85.0975 14.232 85.3855 15.664 85.9615 16.896C86.5375 18.112 87.3455 19.064 88.3855 19.752C89.4255 20.424 90.6335 20.76 92.0095 20.76C93.3855 20.76 94.5935 20.424 95.6335 19.752C96.6735 19.064 97.4815 18.104 98.0575 16.872C98.6335 15.64 98.9215 14.216 98.9215 12.6C98.9215 10.984 98.6335 9.568 98.0575 8.352C97.4815 7.12 96.6735 6.16 95.6335 5.472C94.5935 4.784 93.3855 4.44 92.0095 4.44C90.6335 4.44 89.4255 4.784 88.3855 5.472C87.3615 6.144 86.5535 7.096 85.9615 8.328C85.3855 9.544 85.0975 10.968 85.0975 12.6ZM105.778 4.2H108.994C110.69 4.2 112.002 4.56 112.93 5.28C113.874 5.984 114.346 6.976 114.346 8.256C114.346 9.248 114.05 10.072 113.458 10.728C112.882 11.384 112.042 11.824 110.938 12.048V12.192C111.994 12.4 112.858 12.896 113.53 13.68C114.202 14.464 114.706 15.432 115.042 16.584C115.346 17.64 115.642 18.464 115.93 19.056C116.234 19.632 116.562 20.048 116.914 20.304C117.282 20.56 117.714 20.744 118.21 20.856V21H117.226C116.522 21 115.938 20.872 115.474 20.616C115.026 20.36 114.642 19.928 114.322 19.32C114.002 18.712 113.698 17.872 113.41 16.8C112.946 15.152 112.33 13.984 111.562 13.296C110.794 12.608 109.858 12.264 108.754 12.264H108.61V11.832H108.754C111.33 11.832 112.618 10.648 112.618 8.28C112.618 5.944 111.41 4.776 108.994 4.776H107.41V21H105.778V4.2ZM120.817 21L121.417 3.864H121.705L133.777 18.456H133.921L133.393 4.2H135.025L134.425 21.336H134.137L122.065 6.744H121.921L122.449 21H120.817ZM139.711 12.6C139.711 11.368 139.927 10.224 140.359 9.168C140.807 8.096 141.423 7.168 142.207 6.384C143.007 5.584 143.935 4.968 144.991 4.536C146.063 4.088 147.215 3.864 148.447 3.864C149.679 3.864 150.823 4.088 151.879 4.536C152.951 4.968 153.879 5.584 154.663 6.384C155.463 7.168 156.079 8.096 156.511 9.168C156.959 10.224 157.183 11.368 157.183 12.6C157.183 13.832 156.959 14.984 156.511 16.056C156.079 17.112 155.463 18.04 154.663 18.84C153.879 19.624 152.951 20.24 151.879 20.688C150.823 21.12 149.679 21.336 148.447 21.336C147.215 21.336 146.063 21.12 144.991 20.688C143.935 20.24 143.007 19.624 142.207 18.84C141.423 18.04 140.807 17.112 140.359 16.056C139.927 14.984 139.711 13.832 139.711 12.6ZM141.535 12.6C141.535 14.232 141.823 15.664 142.399 16.896C142.975 18.112 143.783 19.064 144.823 19.752C145.863 20.424 147.071 20.76 148.447 20.76C149.823 20.76 151.031 20.424 152.071 19.752C153.111 19.064 153.919 18.104 154.495 16.872C155.071 15.64 155.359 14.216 155.359 12.6C155.359 10.984 155.071 9.568 154.495 8.352C153.919 7.12 153.111 6.16 152.071 5.472C151.031 4.784 149.823 4.44 148.447 4.44C147.071 4.44 145.863 4.784 144.823 5.472C143.799 6.144 142.991 7.096 142.399 8.328C141.823 9.544 141.535 10.968 141.535 12.6ZM168.684 21V4.2H173.964C175.82 4.2 177.436 4.552 178.812 5.256C180.188 5.96 181.26 6.944 182.028 8.208C182.796 9.456 183.18 10.92 183.18 12.6C183.18 14.28 182.796 15.752 182.028 17.016C181.26 18.264 180.188 19.24 178.812 19.944C177.436 20.648 175.82 21 173.964 21H168.684ZM173.964 4.776H170.316V20.424H173.964C176.284 20.424 178.092 19.736 179.388 18.36C180.7 16.984 181.356 15.064 181.356 12.6C181.356 10.136 180.7 8.216 179.388 6.84C178.092 5.464 176.284 4.776 173.964 4.776ZM188.231 21V4.2H195.551V5.376L191.351 4.824C190.615 4.728 190.119 4.68 189.863 4.68V12C190.071 12 190.567 11.976 191.351 11.928L195.287 11.688V12.792L191.351 12.552C190.567 12.504 190.071 12.48 189.863 12.48V20.52C190.151 20.52 190.655 20.472 191.375 20.376L195.623 19.824V21H188.231ZM204.626 21L211.082 4.2H212.57L219.026 21H217.274L214.298 13.128H208.85L206.378 21H204.626ZM211.25 5.448L209.018 12.552H214.082L211.394 5.448H211.25ZM222.919 21V4.2H226.255C227.983 4.2 229.327 4.56 230.287 5.28C231.247 6 231.727 7 231.727 8.28C231.727 9.224 231.447 10.032 230.887 10.704C230.327 11.36 229.543 11.808 228.535 12.048V12.192C229.911 12.368 230.983 12.848 231.751 13.632C232.535 14.4 232.927 15.376 232.927 16.56C232.927 17.952 232.391 19.04 231.319 19.824C230.247 20.608 228.743 21 226.807 21H222.919ZM226.279 4.776H224.551V11.976H226.255C228.783 11.976 230.047 10.776 230.047 8.376C230.047 5.976 228.791 4.776 226.279 4.776ZM226.807 12.552H224.551V20.424H226.807C229.735 20.424 231.199 19.112 231.199 16.488C231.199 13.864 229.735 12.552 226.807 12.552ZM237.491 4.2H239.123V14.328C239.123 16.264 239.595 17.776 240.539 18.864C241.499 19.936 242.843 20.472 244.571 20.472C245.659 20.472 246.603 20.264 247.403 19.848C248.219 19.416 248.843 18.824 249.275 18.072C249.723 17.32 249.931 16.456 249.899 15.48L249.491 4.2H251.123L250.715 15.48C250.651 17.4 250.075 18.856 248.987 19.848C247.915 20.84 246.379 21.336 244.379 21.336C242.219 21.336 240.531 20.712 239.315 19.464C238.099 18.2 237.491 16.472 237.491 14.28V4.2ZM256.88 21V4.2H264.2V5.376L260 4.824C259.264 4.728 258.768 4.68 258.512 4.68V12C258.72 12 259.216 11.976 260 11.928L263.936 11.688V12.792L260 12.552C259.216 12.504 258.72 12.48 258.512 12.48V20.52C258.8 20.52 259.304 20.472 260.024 20.376L264.272 19.824V21H256.88ZM269.302 4.2H270.934V20.52C271.238 20.52 271.718 20.472 272.374 20.376L276.358 19.776V21H269.302V4.2ZM278.337 21L284.793 4.2H286.281L292.737 21H290.985L288.009 13.128H282.561L280.089 21H278.337ZM284.961 5.448L282.729 12.552H287.793L285.105 5.448H284.961Z" fill="#704A24"/>
</svg>
